<svg xmlns="http://www.w3.org/2000/svg" xmlns:xlink="http://www.w3.org/1999/xlink" width="475" zoomAndPan="magnify" viewBox="0 0 356.25 171.000002" height="228" preserveAspectRatio="xMidYMid meet" version="1.0"><defs><g/></defs><g fill="#ffffff" fill-opacity="1"><g transform="translate(138.916824, 80.893879)"><g><path d="M 63.570312 -45.957031 C 63.570312 -47.179688 62.476562 -47.691406 61.449219 -47.691406 C 58.042969 -47.691406 53.671875 -44.15625 51.421875 -41.84375 C 47.691406 -37.921875 46.085938 -34.195312 44.09375 -29.179688 C 41.074219 -27.125 38.117188 -25.003906 35.160156 -22.816406 C 36.1875 -25.324219 36.832031 -27.445312 36.832031 -30.210938 C 36.832031 -36.058594 33.101562 -38.371094 27.640625 -38.371094 C 21.402344 -38.371094 15.683594 -34.964844 11.570312 -30.46875 C 6.941406 -25.453125 5.011719 -20.503906 4.886719 -13.691406 C 2.570312 -16.328125 1.476562 -19.21875 1.476562 -22.691406 C 1.476562 -26.933594 3.472656 -31.300781 6.300781 -34.386719 C 9.320312 -37.730469 12.855469 -39.53125 17.226562 -40.429688 C 17.417969 -40.496094 18.511719 -40.558594 18.511719 -41.007812 C 18.511719 -41.328125 17.742188 -41.265625 17.226562 -41.265625 C 13.175781 -41.265625 7.96875 -37.664062 5.335938 -34.773438 C 2.378906 -31.496094 0.515625 -27.253906 0.515625 -22.753906 C 0.515625 -18.125 1.992188 -15.425781 5.011719 -12.019531 C 6.878906 -3.792969 12.597656 0 20.824219 0 C 28.667969 0 35.480469 -3.792969 39.789062 -10.347656 C 43.324219 -15.746094 45.894531 -24.9375 48.207031 -31.175781 C 52.515625 -34.257812 56.628906 -37.792969 60.417969 -41.457031 C 61.382812 -42.421875 63.570312 -44.414062 63.570312 -45.957031 Z M 62.796875 -45.765625 C 62.796875 -43.324219 50.84375 -34.195312 48.722656 -32.78125 C 50.328125 -36.1875 51.933594 -39.273438 54.378906 -42.164062 C 55.664062 -43.707031 59.457031 -46.859375 61.511719 -46.859375 C 62.15625 -46.859375 62.796875 -46.472656 62.796875 -45.765625 Z M 5.847656 -14.847656 C 5.847656 -25.582031 16.582031 -37.472656 27.511719 -37.472656 C 32.460938 -37.472656 35.867188 -35.542969 35.867188 -30.210938 C 35.867188 -26.738281 34.582031 -24.167969 32.972656 -21.210938 C 31.429688 -19.988281 29.695312 -19.089844 28.089844 -17.933594 C 27.765625 -17.675781 27.125 -17.355469 27.125 -16.839844 C 27.125 -16.710938 27.253906 -16.582031 27.382812 -16.582031 C 27.765625 -16.582031 31.300781 -18.960938 31.816406 -19.28125 C 27.125 -14.011719 21.210938 -10.542969 14.011719 -10.542969 C 10.863281 -10.542969 8.613281 -11.25 5.847656 -12.789062 Z M 43.578125 -27.765625 C 41.074219 -21.148438 38.246094 -13.691406 33.230469 -8.546875 C 29.308594 -4.5 24.039062 -1.671875 18.320312 -1.671875 C 12.277344 -1.671875 7.519531 -5.527344 6.105469 -11.375 C 9.320312 -10.027344 10.992188 -9.578125 14.460938 -9.578125 C 21.402344 -9.578125 26.609375 -12.535156 31.238281 -17.484375 C 32.332031 -18.703125 33.746094 -20.375 34.453125 -21.339844 C 36.894531 -23.011719 40.6875 -25.839844 43.578125 -27.765625 Z M 43.578125 -27.765625 "/></g></g></g><g fill="#ffffff" fill-opacity="1"><g transform="translate(169.573455, 73.937528)"><g/></g></g><g fill="#ffffff" fill-opacity="1"><g transform="translate(179.319324, 73.937528)"><g/></g></g><g fill="#ffffff" fill-opacity="1"><g transform="translate(189.065629, 73.937528)"><g><path d="M 14.273438 -21.59375 C 11.039062 -21.59375 8.492188 -19.773438 6.996094 -17.269531 L 6.914062 -17.269531 L 6.914062 -21.230469 L 6.714844 -21.230469 C 5.175781 -20.664062 2.910156 -19.855469 1.414062 -19.289062 L 1.414062 -19.128906 C 2.425781 -18.238281 3.113281 -17.46875 3.113281 -15.648438 L 3.113281 4.894531 C 3.113281 6.1875 2.710938 7.359375 1.699219 7.765625 L 1.699219 8.007812 L 8.492188 8.007812 L 8.492188 7.765625 C 7.480469 7.359375 7.035156 6.105469 7.035156 4.894531 L 7.035156 -2.265625 C 8.613281 -0.605469 11.203125 0.28125 13.222656 0.28125 C 18.035156 0.28125 22.523438 -3.761719 22.523438 -10.675781 C 22.523438 -17.753906 18.84375 -21.59375 14.273438 -21.59375 Z M 11.808594 -0.96875 C 9.867188 -0.96875 8.25 -1.496094 7.035156 -2.710938 L 7.035156 -16.945312 C 8.25 -18.722656 10.3125 -19.894531 12.65625 -19.894531 C 16.015625 -19.894531 18.320312 -16.417969 18.320312 -10.351562 C 18.320312 -3.800781 15.570312 -0.96875 11.808594 -0.96875 Z M 11.808594 -0.96875 "/></g></g></g><g fill="#ffffff" fill-opacity="1"><g transform="translate(213.248329, 73.937528)"><g><path d="M 21.394531 -2.871094 C 20.867188 -1.820312 20.21875 -1.414062 19.492188 -1.414062 C 18.398438 -1.414062 17.710938 -2.101562 17.710938 -4.085938 L 17.710938 -13.101562 C 17.710938 -18.078125 15.527344 -21.636719 10.027344 -21.636719 C 5.09375 -21.636719 2.34375 -17.792969 2.34375 -14.152344 L 2.546875 -14.152344 C 2.546875 -16.824219 5.09375 -19.894531 8.816406 -19.894531 C 12.898438 -19.894531 13.871094 -16.78125 13.871094 -14.195312 L 13.871094 -12.578125 L 7.84375 -10.433594 C 3.113281 -8.734375 1.171875 -6.671875 1.171875 -4.085938 C 1.171875 -1.414062 3.195312 0.28125 6.269531 0.28125 C 9.421875 0.28125 12.011719 -1.335938 13.910156 -3.71875 L 13.910156 -3.597656 C 14.316406 -0.847656 15.972656 0.28125 17.753906 0.28125 C 19.613281 0.28125 20.746094 -0.605469 21.515625 -2.75 L 21.433594 -2.871094 Z M 8.167969 -1.292969 C 5.902344 -1.292969 4.652344 -2.832031 4.652344 -4.8125 C 4.652344 -6.753906 5.703125 -8.816406 9.542969 -10.472656 L 13.871094 -12.253906 L 13.871094 -4.042969 C 12.699219 -2.710938 10.878906 -1.292969 8.167969 -1.292969 Z M 8.167969 -1.292969 "/></g></g></g><g fill="#ffffff" fill-opacity="1"><g transform="translate(234.357641, 73.937528)"><g><path d="M 13.34375 -21.636719 C 10.714844 -21.636719 8.410156 -19.53125 7.035156 -16.984375 L 7.035156 -21.230469 L 6.835938 -21.230469 C 5.296875 -20.664062 3.03125 -19.855469 1.535156 -19.289062 L 1.535156 -19.128906 C 2.589844 -18.238281 3.277344 -17.308594 3.277344 -15.773438 L 3.277344 -3.113281 C 3.277344 -1.820312 2.871094 -0.648438 1.859375 -0.242188 L 1.859375 0 L 8.613281 0 L 8.613281 -0.242188 C 7.601562 -0.648438 7.199219 -1.902344 7.199219 -3.113281 L 7.199219 -16.660156 C 7.644531 -17.550781 8.9375 -19.613281 11.6875 -19.613281 C 13.144531 -19.613281 14.398438 -19.046875 15.527344 -17.511719 L 15.609375 -17.511719 L 16.78125 -20.382812 C 15.933594 -21.070312 14.882812 -21.59375 13.34375 -21.636719 Z M 13.34375 -21.636719 "/></g></g></g><g fill="#ffffff" fill-opacity="1"><g transform="translate(251.301706, 73.937528)"><g><path d="M 12.535156 -14.152344 L 16.214844 -17.957031 C 17.269531 -19.085938 18.359375 -19.894531 20.21875 -20.746094 L 20.21875 -20.949219 L 14.921875 -20.949219 L 14.921875 -20.746094 C 15.933594 -20.097656 16.214844 -18.84375 15.449219 -18.035156 L 6.914062 -9.179688 L 6.914062 -31.21875 L 6.753906 -31.21875 C 5.136719 -30.613281 2.589844 -29.765625 1.253906 -29.277344 L 1.253906 -29.078125 C 2.304688 -28.1875 2.992188 -27.417969 2.992188 -25.597656 L 2.992188 -3.113281 C 2.992188 -1.902344 2.589844 -0.648438 1.578125 -0.242188 L 1.578125 0 L 8.371094 0 L 8.371094 -0.242188 C 7.359375 -0.648438 6.914062 -1.902344 6.914062 -3.113281 L 6.914062 -8.332031 L 9.988281 -11.484375 L 14.71875 -3.679688 C 15.691406 -2.101562 16.09375 -0.769531 15.003906 -0.242188 L 15.003906 0 L 22.121094 0 L 22.121094 -0.242188 C 20.339844 -0.929688 19.53125 -2.992188 18.644531 -4.328125 Z M 12.535156 -14.152344 "/></g></g></g><g fill="#ffffff" fill-opacity="1"><g transform="translate(95.351813, 131.223145)"><g><path d="M 91.402344 -44.285156 C 91.402344 -46.472656 90.117188 -48.078125 87.800781 -48.078125 C 85.746094 -48.078125 84.265625 -46.664062 83.171875 -45.058594 C 82.917969 -44.609375 81.4375 -42.359375 81.4375 -41.910156 C 81.4375 -41.78125 81.566406 -41.652344 81.695312 -41.652344 C 82.339844 -41.652344 84.394531 -47.242188 87.480469 -47.242188 C 89.085938 -47.242188 89.859375 -46.023438 89.859375 -44.542969 C 89.859375 -40.042969 79.058594 -25.453125 76.039062 -21.789062 C 73.53125 -18.703125 59.199219 -1.542969 54.890625 -1.542969 C 54.378906 -1.542969 53.992188 -1.863281 53.992188 -2.378906 C 53.992188 -3.726562 55.792969 -6.878906 56.433594 -8.035156 C 59.328125 -13.175781 62.539062 -18.0625 65.496094 -23.140625 C 67.296875 -26.160156 69.226562 -29.179688 70.253906 -32.523438 C 70.640625 -33.746094 71.027344 -34.773438 71.027344 -36.058594 C 71.027344 -36.832031 70.640625 -37.601562 69.738281 -37.601562 C 68.777344 -37.601562 66.011719 -34.195312 65.496094 -33.617188 C 59.90625 -27.316406 54.378906 -21.019531 48.527344 -14.914062 C 44.929688 -11.121094 41.136719 -7.070312 36.894531 -3.921875 C 42.421875 -13.433594 52.449219 -26.226562 52.449219 -37.539062 C 52.449219 -42.617188 50.457031 -45.957031 46.535156 -49.042969 C 44.992188 -53.09375 42.742188 -56.304688 37.988281 -56.304688 C 36.636719 -56.304688 32.972656 -55.277344 32.332031 -54.054688 C 32.332031 -53.929688 32.394531 -53.863281 32.523438 -53.863281 C 32.972656 -53.863281 35.738281 -55.535156 37.921875 -55.535156 C 41.714844 -55.535156 43.964844 -53.027344 45.316406 -49.75 C 41.78125 -51.355469 39.722656 -51.871094 35.800781 -51.871094 C 31.238281 -51.871094 26.804688 -50.777344 22.625 -48.980469 C 11.957031 -44.414062 0 -33.359375 0 -20.890625 C 0 -14.269531 4.628906 -10.734375 10.992188 -10.734375 C 26.546875 -10.734375 46.792969 -29.375 46.792969 -45.1875 C 46.792969 -45.699219 46.730469 -46.277344 46.730469 -46.792969 C 48.527344 -44.480469 49.558594 -41.714844 49.558594 -38.824219 C 49.558594 -33.230469 44.480469 -24.8125 41.714844 -20.054688 C 38.4375 -14.398438 34.773438 -8.742188 32.460938 -2.636719 C 32.332031 -2.25 32.007812 -1.542969 32.007812 -1.15625 C 32.007812 -0.515625 32.589844 -0.0625 33.167969 -0.0625 C 36.636719 -0.0625 57.335938 -22.945312 60.675781 -26.804688 C 61.191406 -27.382812 66.910156 -33.9375 67.363281 -33.9375 C 67.492188 -33.9375 67.554688 -33.875 67.554688 -33.746094 C 67.554688 -33.167969 66.140625 -31.300781 65.753906 -30.789062 C 63.699219 -27.832031 61.769531 -24.746094 59.839844 -21.660156 C 58.492188 -19.476562 57.011719 -17.160156 55.855469 -14.847656 C 54.441406 -12.019531 51.613281 -5.71875 51.613281 -2.507812 C 51.613281 -1.15625 52.515625 0 53.929688 0 C 56.304688 0 60.742188 -3.792969 62.414062 -5.269531 C 65.113281 -7.648438 67.683594 -10.285156 70.191406 -12.855469 C 72.890625 -15.621094 75.652344 -18.382812 78.160156 -21.339844 C 82.339844 -26.289062 91.402344 -37.410156 91.402344 -44.285156 Z M 45.957031 -45.121094 C 45.957031 -37.152344 39.53125 -28.023438 34.003906 -22.691406 C 28.089844 -17.035156 19.21875 -11.570312 10.796875 -11.570312 C 5.078125 -11.570312 0.835938 -14.785156 0.835938 -20.761719 C 0.835938 -29.117188 6.105469 -36.25 12.148438 -41.523438 C 18.449219 -47.050781 26.675781 -50.90625 35.160156 -50.90625 C 39.144531 -50.90625 42.359375 -50.136719 45.699219 -47.949219 C 45.894531 -46.984375 45.957031 -46.085938 45.957031 -45.121094 Z M 45.957031 -45.121094 "/></g></g></g><g fill="#ffffff" fill-opacity="1"><g transform="translate(171.04602, 129.274749)"><g><path d="M 20.664062 -12.171875 L 20.664062 -12.578125 C 20.625 -17.996094 17.671875 -21.636719 11.6875 -21.636719 C 5.703125 -21.636719 1.617188 -16.824219 1.617188 -10.59375 C 1.617188 -3.964844 6.027344 0.28125 12.050781 0.28125 C 16.257812 0.28125 18.722656 -1.941406 20.179688 -4.8125 L 20.058594 -4.972656 C 18.320312 -2.667969 16.136719 -1.980469 13.464844 -1.980469 C 8.855469 -1.980469 5.78125 -6.1875 5.78125 -11.847656 L 5.78125 -12.171875 Z M 11.769531 -21.109375 C 15.285156 -21.109375 16.984375 -18.117188 16.984375 -12.65625 L 5.78125 -12.65625 C 6.027344 -17.511719 8.289062 -21.109375 11.769531 -21.109375 Z M 11.769531 -21.109375 "/></g></g></g><g fill="#ffffff" fill-opacity="1"><g transform="translate(202.178758, 131.223145)"><g><path d="M 63.570312 -45.957031 C 63.570312 -47.179688 62.476562 -47.691406 61.449219 -47.691406 C 58.042969 -47.691406 53.671875 -44.15625 51.421875 -41.84375 C 47.691406 -37.921875 46.085938 -34.195312 44.09375 -29.179688 C 41.074219 -27.125 38.117188 -25.003906 35.160156 -22.816406 C 36.1875 -25.324219 36.832031 -27.445312 36.832031 -30.210938 C 36.832031 -36.058594 33.101562 -38.371094 27.640625 -38.371094 C 21.402344 -38.371094 15.683594 -34.964844 11.570312 -30.46875 C 6.941406 -25.453125 5.011719 -20.503906 4.886719 -13.691406 C 2.570312 -16.328125 1.476562 -19.21875 1.476562 -22.691406 C 1.476562 -26.933594 3.472656 -31.300781 6.300781 -34.386719 C 9.320312 -37.730469 12.855469 -39.53125 17.226562 -40.429688 C 17.417969 -40.496094 18.511719 -40.558594 18.511719 -41.007812 C 18.511719 -41.328125 17.742188 -41.265625 17.226562 -41.265625 C 13.175781 -41.265625 7.96875 -37.664062 5.335938 -34.773438 C 2.378906 -31.496094 0.515625 -27.253906 0.515625 -22.753906 C 0.515625 -18.125 1.992188 -15.425781 5.011719 -12.019531 C 6.878906 -3.792969 12.597656 0 20.824219 0 C 28.667969 0 35.480469 -3.792969 39.789062 -10.347656 C 43.324219 -15.746094 45.894531 -24.9375 48.207031 -31.175781 C 52.515625 -34.257812 56.628906 -37.792969 60.417969 -41.457031 C 61.382812 -42.421875 63.570312 -44.414062 63.570312 -45.957031 Z M 62.796875 -45.765625 C 62.796875 -43.324219 50.84375 -34.195312 48.722656 -32.78125 C 50.328125 -36.1875 51.933594 -39.273438 54.378906 -42.164062 C 55.664062 -43.707031 59.457031 -46.859375 61.511719 -46.859375 C 62.15625 -46.859375 62.796875 -46.472656 62.796875 -45.765625 Z M 5.847656 -14.847656 C 5.847656 -25.582031 16.582031 -37.472656 27.511719 -37.472656 C 32.460938 -37.472656 35.867188 -35.542969 35.867188 -30.210938 C 35.867188 -26.738281 34.582031 -24.167969 32.972656 -21.210938 C 31.429688 -19.988281 29.695312 -19.089844 28.089844 -17.933594 C 27.765625 -17.675781 27.125 -17.355469 27.125 -16.839844 C 27.125 -16.710938 27.253906 -16.582031 27.382812 -16.582031 C 27.765625 -16.582031 31.300781 -18.960938 31.816406 -19.28125 C 27.125 -14.011719 21.210938 -10.542969 14.011719 -10.542969 C 10.863281 -10.542969 8.613281 -11.25 5.847656 -12.789062 Z M 43.578125 -27.765625 C 41.074219 -21.148438 38.246094 -13.691406 33.230469 -8.546875 C 29.308594 -4.5 24.039062 -1.671875 18.320312 -1.671875 C 12.277344 -1.671875 7.519531 -5.527344 6.105469 -11.375 C 9.320312 -10.027344 10.992188 -9.578125 14.460938 -9.578125 C 21.402344 -9.578125 26.609375 -12.535156 31.238281 -17.484375 C 32.332031 -18.703125 33.746094 -20.375 34.453125 -21.339844 C 36.894531 -23.011719 40.6875 -25.839844 43.578125 -27.765625 Z M 43.578125 -27.765625 "/></g></g></g><g fill="#ffffff" fill-opacity="1"><g transform="translate(251.294133, 129.274749)"><g><path d="M 20.828125 -12.898438 C 20.828125 -16.824219 19.816406 -21.636719 14.355469 -21.636719 C 11.160156 -21.636719 8.410156 -19.9375 6.914062 -17.753906 L 6.914062 -31.21875 L 6.589844 -31.21875 L 1.253906 -29.277344 L 1.253906 -29.078125 C 2.304688 -28.1875 2.992188 -27.417969 2.992188 -25.597656 L 2.992188 -3.113281 C 2.992188 -1.820312 2.589844 -0.648438 1.578125 -0.242188 L 1.578125 0 L 8.371094 0 L 8.371094 -0.242188 C 7.359375 -0.648438 6.914062 -1.902344 6.914062 -3.113281 L 6.914062 -17.308594 C 8.128906 -18.886719 9.988281 -19.9375 12.414062 -19.9375 C 14.960938 -19.9375 16.945312 -18.035156 16.945312 -13.789062 L 16.945312 -3.113281 C 16.945312 -1.820312 16.539062 -0.648438 15.527344 -0.242188 L 15.527344 0 L 22.28125 0 L 22.28125 -0.242188 C 21.269531 -0.648438 20.828125 -1.902344 20.828125 -3.113281 Z M 20.828125 -12.898438 "/></g></g></g><g fill="#ffffff" fill-opacity="1"><g transform="translate(274.991559, 129.274749)"><g><path d="M 21.394531 -2.871094 C 20.867188 -1.820312 20.21875 -1.414062 19.492188 -1.414062 C 18.398438 -1.414062 17.710938 -2.101562 17.710938 -4.085938 L 17.710938 -13.101562 C 17.710938 -18.078125 15.527344 -21.636719 10.027344 -21.636719 C 5.09375 -21.636719 2.34375 -17.792969 2.34375 -14.152344 L 2.546875 -14.152344 C 2.546875 -16.824219 5.09375 -19.894531 8.816406 -19.894531 C 12.898438 -19.894531 13.871094 -16.78125 13.871094 -14.195312 L 13.871094 -12.578125 L 7.84375 -10.433594 C 3.113281 -8.734375 1.171875 -6.671875 1.171875 -4.085938 C 1.171875 -1.414062 3.195312 0.28125 6.269531 0.28125 C 9.421875 0.28125 12.011719 -1.335938 13.910156 -3.71875 L 13.910156 -3.597656 C 14.316406 -0.847656 15.972656 0.28125 17.753906 0.28125 C 19.613281 0.28125 20.746094 -0.605469 21.515625 -2.75 L 21.433594 -2.871094 Z M 8.167969 -1.292969 C 5.902344 -1.292969 4.652344 -2.832031 4.652344 -4.8125 C 4.652344 -6.753906 5.703125 -8.816406 9.542969 -10.472656 L 13.871094 -12.253906 L 13.871094 -4.042969 C 12.699219 -2.710938 10.878906 -1.292969 8.167969 -1.292969 Z M 8.167969 -1.292969 "/></g></g></g><g fill="#ffffff" fill-opacity="1"><g transform="translate(296.100871, 129.274749)"><g><path d="M 13.34375 -21.636719 C 10.714844 -21.636719 8.410156 -19.53125 7.035156 -16.984375 L 7.035156 -21.230469 L 6.835938 -21.230469 C 5.296875 -20.664062 3.03125 -19.855469 1.535156 -19.289062 L 1.535156 -19.128906 C 2.589844 -18.238281 3.277344 -17.308594 3.277344 -15.773438 L 3.277344 -3.113281 C 3.277344 -1.820312 2.871094 -0.648438 1.859375 -0.242188 L 1.859375 0 L 8.613281 0 L 8.613281 -0.242188 C 7.601562 -0.648438 7.199219 -1.902344 7.199219 -3.113281 L 7.199219 -16.660156 C 7.644531 -17.550781 8.9375 -19.613281 11.6875 -19.613281 C 13.144531 -19.613281 14.398438 -19.046875 15.527344 -17.511719 L 15.609375 -17.511719 L 16.78125 -20.382812 C 15.933594 -21.070312 14.882812 -21.59375 13.34375 -21.636719 Z M 13.34375 -21.636719 "/></g></g></g><g fill="#ffffff" fill-opacity="1"><g transform="translate(313.044936, 129.274749)"><g><path d="M 20.664062 -12.171875 L 20.664062 -12.578125 C 20.625 -17.996094 17.671875 -21.636719 11.6875 -21.636719 C 5.703125 -21.636719 1.617188 -16.824219 1.617188 -10.59375 C 1.617188 -3.964844 6.027344 0.28125 12.050781 0.28125 C 16.257812 0.28125 18.722656 -1.941406 20.179688 -4.8125 L 20.058594 -4.972656 C 18.320312 -2.667969 16.136719 -1.980469 13.464844 -1.980469 C 8.855469 -1.980469 5.78125 -6.1875 5.78125 -11.847656 L 5.78125 -12.171875 Z M 11.769531 -21.109375 C 15.285156 -21.109375 16.984375 -18.117188 16.984375 -12.65625 L 5.78125 -12.65625 C 6.027344 -17.511719 8.289062 -21.109375 11.769531 -21.109375 Z M 11.769531 -21.109375 "/></g></g></g><g fill="#ffffff" fill-opacity="1"><g transform="translate(28.823545, 80.893879)"><g><path d="M 77.324219 -46.984375 C 77.324219 -48.144531 76.039062 -48.398438 75.140625 -48.398438 C 71.859375 -48.398438 67.941406 -46.277344 65.242188 -44.542969 C 61.769531 -45.378906 58.425781 -46.792969 55.019531 -47.886719 C 51.808594 -48.914062 47.949219 -49.878906 44.542969 -49.878906 C 41.394531 -49.878906 37.085938 -48.785156 34.644531 -46.664062 C 32.203125 -44.542969 30.59375 -41.136719 30.59375 -37.921875 C 30.59375 -37.34375 31.046875 -33.359375 31.816406 -33.359375 C 32.007812 -33.359375 32.136719 -33.421875 32.136719 -33.617188 C 32.136719 -34.453125 31.429688 -35.929688 31.429688 -37.539062 C 31.429688 -43.386719 35.800781 -46.730469 41.394531 -46.730469 C 44.800781 -46.730469 55.277344 -43 61.707031 -41.972656 C 59.261719 -39.980469 56.820312 -37.921875 54.636719 -35.609375 C 51.035156 -31.753906 48.144531 -27.253906 45.316406 -22.816406 C 41.714844 -17.226562 38.371094 -10.925781 33.101562 -6.683594 C 29.4375 -3.726562 24.488281 -1.476562 19.734375 -1.476562 C 16.777344 -1.476562 13.882812 -2.3125 11.441406 -3.921875 C 8.804688 -5.71875 7.90625 -7.390625 6.621094 -10.21875 C 8.097656 -9.898438 9.578125 -9.578125 11.121094 -9.578125 C 16.070312 -9.578125 21.597656 -11.828125 25.324219 -15.039062 C 28.730469 -17.933594 32.203125 -22.945312 32.203125 -27.574219 C 32.203125 -31.882812 28.601562 -33.9375 24.683594 -33.9375 C 19.21875 -33.9375 14.140625 -30.59375 10.667969 -26.609375 C 6.75 -22.109375 5.398438 -17.613281 5.398438 -11.699219 C 2.3125 -13.625 1.09375 -15.554688 1.09375 -19.21875 C 1.09375 -24.488281 4.433594 -29.179688 8.871094 -31.882812 C 9.511719 -32.265625 11.183594 -33.039062 11.183594 -33.296875 C 11.183594 -33.550781 10.925781 -33.617188 10.734375 -33.617188 C 9.0625 -33.617188 4.5 -29.632812 3.472656 -28.28125 C 1.476562 -25.582031 0.257812 -22.625 0.257812 -19.21875 C 0.257812 -14.847656 1.929688 -12.789062 5.59375 -10.605469 C 8.355469 -2.636719 14.847656 0.0625 22.816406 0.0625 C 33.808594 0.0625 41.585938 -7.457031 46.535156 -16.582031 C 52.128906 -26.996094 53.09375 -33.746094 63.054688 -41.84375 C 64.277344 -41.652344 65.496094 -41.585938 66.71875 -41.585938 C 67.941406 -41.585938 69.160156 -41.714844 70.382812 -41.972656 C 72.503906 -42.488281 77.324219 -44.222656 77.324219 -46.984375 Z M 76.425781 -46.921875 C 76.425781 -44.738281 71.859375 -43.515625 70.191406 -43.515625 C 68.90625 -43.515625 67.683594 -43.773438 66.460938 -44.15625 C 68.777344 -45.699219 72.503906 -47.691406 75.394531 -47.691406 C 75.910156 -47.691406 76.425781 -47.5 76.425781 -46.921875 Z M 31.238281 -27.703125 C 31.238281 -18.511719 19.925781 -10.542969 11.375 -10.542969 C 9.640625 -10.542969 7.90625 -10.925781 6.234375 -11.3125 C 6.234375 -11.957031 6.171875 -12.597656 6.171875 -13.242188 C 6.171875 -22.5625 15.167969 -33.101562 24.8125 -33.101562 C 28.152344 -33.101562 31.238281 -31.367188 31.238281 -27.703125 Z M 31.238281 -27.703125 "/></g></g></g><g fill="#ffffff" fill-opacity="1"><g transform="translate(85.197126, 76.185995)"><g><path d="M 20.828125 -12.898438 C 20.828125 -16.824219 19.816406 -21.636719 14.355469 -21.636719 C 11.160156 -21.636719 8.410156 -19.9375 6.914062 -17.753906 L 6.914062 -31.21875 L 6.589844 -31.21875 L 1.253906 -29.277344 L 1.253906 -29.078125 C 2.304688 -28.1875 2.992188 -27.417969 2.992188 -25.597656 L 2.992188 -3.113281 C 2.992188 -1.820312 2.589844 -0.648438 1.578125 -0.242188 L 1.578125 0 L 8.371094 0 L 8.371094 -0.242188 C 7.359375 -0.648438 6.914062 -1.902344 6.914062 -3.113281 L 6.914062 -17.308594 C 8.128906 -18.886719 9.988281 -19.9375 12.414062 -19.9375 C 14.960938 -19.9375 16.945312 -18.035156 16.945312 -13.789062 L 16.945312 -3.113281 C 16.945312 -1.820312 16.539062 -0.648438 15.527344 -0.242188 L 15.527344 0 L 22.28125 0 L 22.28125 -0.242188 C 21.269531 -0.648438 20.828125 -1.902344 20.828125 -3.113281 Z M 20.828125 -12.898438 "/></g></g></g><g fill="#ffffff" fill-opacity="1"><g transform="translate(108.894553, 76.185995)"><g><path d="M 20.664062 -12.171875 L 20.664062 -12.578125 C 20.625 -17.996094 17.671875 -21.636719 11.6875 -21.636719 C 5.703125 -21.636719 1.617188 -16.824219 1.617188 -10.59375 C 1.617188 -3.964844 6.027344 0.28125 12.050781 0.28125 C 16.257812 0.28125 18.722656 -1.941406 20.179688 -4.8125 L 20.058594 -4.972656 C 18.320312 -2.667969 16.136719 -1.980469 13.464844 -1.980469 C 8.855469 -1.980469 5.78125 -6.1875 5.78125 -11.847656 L 5.78125 -12.171875 Z M 11.769531 -21.109375 C 15.285156 -21.109375 16.984375 -18.117188 16.984375 -12.65625 L 5.78125 -12.65625 C 6.027344 -17.511719 8.289062 -21.109375 11.769531 -21.109375 Z M 11.769531 -21.109375 "/></g></g></g></svg>